<?xml version="1.0" encoding="utf-8"?>
<!-- Generator: Adobe Illustrator 21.0.0, SVG Export Plug-In . SVG Version: 6.00 Build 0)  -->
<svg version="1.1" id="e-Trusted" xmlns="http://www.w3.org/2000/svg" xmlns:xlink="http://www.w3.org/1999/xlink" x="0px" y="0px"
	 viewBox="0 0 293 121" style="enable-background:new 0 0 293 121;" xml:space="preserve">
<style type="text/css">
	.st0{fill:#1D1D1B;}
</style>
<desc>Trusted Shops</desc>
<g>
	<g id="trusted_4_">
		<path d="M117.2,56.3H109v-5.8h23.6v5.8h-8.4v24.9h-7V56.3z"/>
		<path d="M135.2,50.9c2.2-0.4,5.6-0.6,9.3-0.6c4.6,0,7.8,0.7,9.9,2.4c1.8,1.5,2.8,3.6,2.8,6.4c0,3.9-2.8,6.6-5.4,7.6v0.1
			c2.1,0.9,3.3,2.9,4.1,5.7c1,3.5,1.9,7.5,2.5,8.7h-7.1c-0.5-0.9-1.2-3.4-2.1-7.2c-0.8-3.8-2.1-4.9-5-4.9h-2.1v12.1h-6.9V50.9z
			 M142.1,64.1h2.7c3.5,0,5.5-1.7,5.5-4.4c0-2.8-1.9-4.2-5.1-4.3c-1.7,0-2.6,0.1-3.1,0.2V64.1z"/>
		<path d="M168.3,50.5v17.7c0,5.3,2,8,5.6,8c3.6,0,5.7-2.6,5.7-8V50.5h6.9v17.2c0,9.5-4.8,14-12.8,14c-7.8,0-12.3-4.3-12.3-14.1
			V50.5H168.3z"/>
		<path d="M191.4,74.1c1.9,1,4.7,1.9,7.7,1.9c3.2,0,4.9-1.3,4.9-3.3c0-1.9-1.5-3-5.2-4.3c-5.1-1.8-8.4-4.6-8.4-9.1
			c0-5.2,4.4-9.3,11.6-9.3c3.5,0,6,0.7,7.8,1.6l-1.6,5.6c-1.2-0.6-3.4-1.5-6.4-1.5c-3,0-4.5,1.4-4.5,3c0,2,1.7,2.8,5.7,4.3
			c5.4,2,8,4.8,8,9.2c0,5.2-4,9.5-12.4,9.5c-3.5,0-7-0.9-8.7-1.9L191.4,74.1z"/>
		<path d="M220.7,56.3h-8.3v-5.8h23.6v5.8h-8.4v24.9h-7V56.3z"/>
		<path d="M257,68.2h-11.3v7.3h12.6v5.7h-19.6V50.5h19v5.7h-12v6.4H257V68.2z"/>
		<path d="M262.6,50.9c2.6-0.4,5.9-0.6,9.4-0.6c5.8,0,9.6,1,12.6,3.3c3.2,2.4,5.2,6.2,5.2,11.6c0,5.9-2.1,9.9-5.1,12.5
			c-3.2,2.7-8.2,4-14.2,4c-3.6,0-6.2-0.2-7.9-0.5V50.9z M269.6,76c0.6,0.1,1.6,0.1,2.4,0.1c6.3,0,10.4-3.4,10.4-10.8
			c0-6.4-3.7-9.8-9.7-9.8c-1.6,0-2.6,0.1-3.1,0.3V76z"/>
	</g>
	<path d="M50,0C22.4,0,0,22.4,0,50s22.4,50,50,50s50-22.4,50-50S77.5,0,50,0z M49.5,81.3c-17.4,0-31.5-14.1-31.5-31.5
		c0-17.4,14.1-31.5,31.5-31.5S81,32.4,81,49.8C81,67.2,66.9,81.3,49.5,81.3z"/>
	<path class="st0" d="M63.2,59.7c-4.6,6.8-10.9,12.9-19.5,12.9c-9.1,0-14.3-5.7-14.3-14.8c0-14.8,10.9-29.4,26.4-29.4
		c5.2,0,12.1,2.1,12.1,8.4c0,11.2-17.6,15-26.3,17.2c-0.3,1.9-0.6,3.8-0.6,5.7c0,3.9,2.1,7.5,6.4,7.5c5.6,0,10.1-5.4,13.3-9.4
		L63.2,59.7z M58.4,35.5c0-2.3-1.3-4.1-3.7-4.1c-7.2,0-10.8,13.9-12.2,19.4C49.2,48.8,58.4,43.4,58.4,35.5z"/>
	<g>
		<path d="M110,115.5c1.6,1.1,3.8,1.9,6.2,1.9c4.2,0,6.8-2.4,6.8-5.9c0-3.2-1.6-5-5.7-6.6c-4.6-1.6-7.3-3.9-7.3-7.8
			c0-4.1,3.4-7.2,8.2-7.2c2.6,0,4.7,0.7,5.6,1.3l-0.8,1.7c-0.8-0.5-2.6-1.3-5-1.3c-4.6,0-6.1,2.9-6.1,5.2c0,3.1,1.8,4.7,5.9,6.3
			c4.7,1.9,7.1,4,7.1,8.2c0,4.1-2.9,7.8-9,7.8c-2.4,0-5.3-0.8-6.7-1.9L110,115.5z"/>
		<path d="M133.2,90.4v12.4h15.6V90.4h2v28.2h-2v-14.1h-15.6v14.1h-2V90.4H133.2z"/>
		<path d="M181.6,104.2c0,10-6.1,14.9-12.6,14.9c-7,0-12.3-5.5-12.3-14.3c0-9.3,5.6-14.9,12.7-14.9
			C176.4,89.9,181.6,95.4,181.6,104.2z M158.7,104.7c0,6.4,3.7,12.7,10.4,12.7c6.7,0,10.4-6.1,10.4-13.1c0-6-3.3-12.7-10.4-12.7
			C162,91.6,158.7,98.1,158.7,104.7z"/>
		<path d="M187.4,90.7c1.6-0.3,3.6-0.5,6-0.5c3.4,0,5.9,0.8,7.5,2.4c1.3,1.3,2.2,3.1,2.2,5.5c0,2.4-0.7,4.2-2,5.6
			c-1.8,2.1-4.9,3.2-8.3,3.2c-1.3,0-2.4,0-3.4-0.3v12.1h-2V90.7z M189.4,104.8c1,0.3,2.2,0.4,3.6,0.4c5,0,8.1-2.5,8.1-7
			c0-4.4-3.2-6.4-7.7-6.4c-1.8,0-3.2,0.2-4,0.3V104.8z"/>
		<path d="M208.4,115.5c1.6,1.1,3.8,1.9,6.2,1.9c4.2,0,6.8-2.4,6.8-5.9c0-3.2-1.6-5-5.7-6.6c-4.6-1.6-7.3-3.9-7.3-7.8
			c0-4.1,3.4-7.2,8.2-7.2c2.6,0,4.7,0.7,5.6,1.3l-0.8,1.7c-0.8-0.5-2.6-1.3-5-1.3c-4.6,0-6.1,2.9-6.1,5.2c0,3.1,1.8,4.7,5.9,6.3
			c4.7,1.9,7.1,4,7.1,8.2c0,4.1-2.9,7.8-9,7.8c-2.4,0-5.3-0.8-6.7-1.9L208.4,115.5z"/>
	</g>
</g>
</svg>
